<svg xmlns="http://www.w3.org/2000/svg" width="842.193" height="234.584" viewBox="0 0 631.64443 175.93822"><title>logo_org</title><path d="M62.266 56.936L4.459 44.484c3.92-3.715 8.39-4.432 11.91-6.755 11.73-7.738 24.3-9.033 37.65-5.39 5.569 1.52 10.623.469 15.72-2.51 11.066-6.468 22.455-12.379 33.65-18.63 3.622-2.023 7.148-2.05 11.804-.378-3.377 2.646-6.193 4.853-9.011 7.057-7.876 6.157-15.875 12.163-23.576 18.532a13.501 13.501 0 0 1-12.06 2.912c-5.391-1.037-11.02-1.165-16.23-2.734-9.577-2.884-16.707 1.487-23.957 6.612 1.072 2.166 3.174 1.76 4.78 2.09 17.442 3.58 34.91 7.034 52.357 10.587 1.73.352 4.091.099 4.867 1.995.96 2.344-1.562 3.377-2.764 4.805-1.928 2.29-4.057 4.412-6.11 6.597-4.443 4.728-4.07 5.945 2.432 7.492q14.81 3.526 29.64 6.966c12.973 3.026 25.958 5.999 38.923 9.056 8.48 2 10.47 4.69 10.037 13.16q-1.519 29.683-3.023 59.368c-.454 8.834-5.763 12.74-14.13 9.484-15.502-6.034-30.852-12.48-46.117-19.098-6.695-2.903-8.49-8.297-5.798-15.338 5.17-13.528 10.48-27.003 15.69-40.516 2.08-5.395 1.075-7.786-4.394-9.375q-13.906-4.04-27.951-7.597c-4.146-1.056-7.79.108-10.913 3.28-9.939 10.093-20.024 20.041-30.003 30.094-5.309 5.347-9.638 6.33-16.645 3.498q-7.873-3.182-15.71-6.451c-6.992-2.922-7.31-5.44-1.182-10.33 11.98-9.561 24.025-19.041 36.03-28.571 7.015-5.57 14.006-11.17 21.89-17.46zm303.727 84.914c-5.824.006-11.65.086-17.47-.04-1.958-.042-5.159.82-5.018-2.34.111-2.508 3.088-2.618 5.243-2.647 6.156-.084 12.314.014 18.469-.091 2.687-.046 6.917.776 6.948-2.665.025-2.682-4.158-1.508-6.483-1.585-5.319-.177-10.65.031-15.971-.09-4.595-.106-5.724-1.655-4.473-5.905q1.62-5.504 3.473-10.94a9.06 9.06 0 0 1 12.088-5.599 2.994 2.994 0 0 1 2.041 3.1c-.052.98-.446 1.942-.508 2.923-.204 3.211-4.78 7.124.6 9.466 6.447 2.808 13.011-.256 14.808-6.494 3.06-10.628 5.391-9.257 15.658-9.082 2.697.047 3.665 2.031 2.85 4.619-2.398 7.61-4.757 15.234-7.302 22.796-1.074 3.19-3.62 4.592-6.983 4.577-5.99-.026-11.98-.007-17.97-.002zm-151.974-25.33c-7.448.002-8.198.553-10.61 7.794-2.5 7.504-7.805 10.236-15.498 7.943-2.537-.756-3.381-2.39-2.585-4.982 2.879-9.374 5.567-18.81 8.6-28.133 1.43-4.395 12.947-6.931 16.109-3.72 2.006 2.037.696 4.441.239 6.626-1.5 7.168-1.118 7.7 6.288 7.712 5.161.008 10.325.105 15.483-.028 4.127-.107 5.546 1.808 4.458 5.583-1.196 4.15-2.476 8.292-4.022 12.322-1.664 4.334-7.67 6.365-11.858 4.33a3.155 3.155 0 0 1-1.895-3.665 26.451 26.451 0 0 1 1.067-3.83c2.465-7.543 2.172-7.954-5.776-7.952zm210.964 4.877c.643-1.291 1.039-2.032 1.387-2.796 3.739-8.206 10.563-9.564 18.685-8.95 4.335.328 6.46 1.91 6.617 6.253.05 1.392-.734 3.52 1.039 3.99 1.98.524 2.431-1.863 3.377-3.082 1.83-2.358 3.215-5.102 6.102-6.446 1.23-.573 2.574-1.156 3.624.13.885 1.084.21 2.307-.436 3.233-3.62 5.187-7.12 10.477-11.057 15.418-2.723 3.418-12.66 4.614-16.397 2.53-2.838-1.584-2.536-4.408-2.942-7-.265-1.69.777-4.325-1.302-4.8-1.888-.433-2.811 2.156-3.553 3.662-3.704 7.518-9.77 9.879-17.728 8.913-3.526-.428-5.534-1.988-5.743-5.608-.222-3.822-.532-7.642-.647-11.468-.106-3.554 1.427-5.734 5.32-5.617a41.536 41.536 0 0 0 4.497-.015c4.742-.373 7.3 1.577 7.273 6.52-.008 1.321.058 2.674 1.884 5.133zm20.495-50.444c-2.326 0-4.654.026-6.98-.006-5.818-.078-6.586-1.104-4.902-6.5.543-1.743 1.158-3.465 1.66-5.22.417-1.458.66-2.834-.88-4.004-3.47-2.636-1.817-5.047.979-6.405a9.885 9.885 0 0 0 4.961-5.197c1.97-4.263 11.89-6.811 15.687-4.17a3.026 3.026 0 0 1 1.395 3.465c-1.333 4.186.778 5.458 4.444 5.597 1.979.076 4.568-.142 4.537 2.586-.031 2.839-2.63 3.721-5.029 3.794-4.24.13-8.021.718-9.433 5.538-.886 3.027-.655 5.34 3.289 5.5 1.661.068 3.862.116 3.853 2.2-.01 2.228-2.26 2.63-4.112 2.695-3.153.11-6.312.03-9.468.03zM339.381 98.661c7.75.004 8.319.716 6.01 7.958-2.067 6.487-4.212 12.949-6.363 19.408-1.89 5.677-11.11 8.937-16.07 5.73-1.938-1.254-1.81-3.032-1.22-4.858 2.558-7.894 5.04-15.817 7.797-23.641 1.41-4 3.123-4.6 9.846-4.597zm-25.958-.001c8.312.006 8.883.79 6.556 8.1-2.066 6.486-4.091 12.985-6.243 19.443-1.853 5.561-11.45 8.762-16.188 5.475-1.599-1.109-1.793-2.549-1.2-4.367 2.577-7.892 5.014-15.829 7.599-23.717 1.667-5.087 5.86-5.23 9.476-4.934zm219.128-27.707c-7.56-.002-8.23-.9-5.959-8.056q3.014-9.491 6.056-18.974c1.89-5.863 11.22-9.336 16.36-6.067 1.631 1.037 1.812 2.532 1.222 4.345-2.617 8.043-5.019 16.16-7.776 24.154-1.359 3.938-3.276 4.6-9.903 4.598zM335.308 48.506c8.774 0 9.129.512 6.595 8.346-.51 1.578-.947 3.18-1.474 4.752-3.117 9.297-5.15 10.508-14.987 9.356-3.315-.388-4.375-2.148-3.492-5.12a237.537 237.537 0 0 1 4.17-12.766c1.73-4.803 5.836-4.772 9.188-4.568zm75.583 22.449c-8.932.009-9.485-.716-7.134-8.207.495-1.578 1.094-3.123 1.599-4.697 3.06-9.558 4.55-10.473 14.713-9.563 3.243.29 4.587 1.803 3.69 4.892-1.294 4.446-2.642 8.89-4.258 13.226-1.667 4.475-5.581 4.616-8.61 4.349zM117.948 7.175c-4.448-.32-7.467-.326-10.218-1.665-.85-.414-1.946-.856-1.878-2.059.064-1.151 1.088-1.652 2.006-1.941a31.59 31.59 0 0 1 19.987.23c.913.307 1.893.851 1.812 2.074-.077 1.165-1.04 1.584-1.96 1.971-3.617 1.52-7.47 1.027-9.749 1.39zm220.329 38.327c-1.739 0-2.893.041-4.044-.009-1.977-.086-4.36.023-4.48-2.676-.107-2.375 2.02-3.474 3.954-3.715a79.349 79.349 0 0 1 9.357-.264c1.58-.009 3.065.51 3.46 2.186.465 1.977-.96 2.964-2.518 3.728-2.016.989-4.186.7-5.73.75zm81.439-6.856c3.047.595 7.323-1.091 7.431 2.803.11 3.981-4.039 4.039-7.266 4.055-1.83.008-3.66.012-5.488-.025-1.743-.036-3.544-.336-3.855-2.373-.348-2.278 1.45-3.321 3.253-3.754a44.43 44.43 0 0 1 5.925-.706zm-26.187 9.886c-5.819-.065-11.639-.015-17.459-.018-2.327-.002-4.655-.017-6.983 0-18.546.134-15.435-2.181-21.258 15.681-1.752 5.376-.792 6.693 4.733 6.747 5.986.058 11.972-.02 17.958.044 1.596.017 3.976-.159 4.059 1.828.094 2.257-2.368 2.32-4.136 2.56a23.634 23.634 0 0 1-2.99.045c-6.316.045-12.635.015-18.948.179-1.938.05-4.681.191-4.725 2.632-.049 2.743 2.785 2.337 4.648 2.349 11.805.073 23.61.044 35.416.036 4.215-.003 6.748-2.068 7.962-6.135 1.997-6.688 4.257-13.297 6.299-19.972 1.462-4.778.571-5.92-4.576-5.976zm-19.13 15.635a23.836 23.836 0 0 1-4.303.369c-2.853-.443-6.56 1.057-7.376-3.235-.579-3.043 3.22-6.054 7.498-6.28a32.662 32.662 0 0 1 3.463-.003c2.384.127 5.53-.574 5.896 2.88.364 3.443-2.017 5.441-5.178 6.27zM321.204 33.65c-5.087-3.442-14.431.018-16.224 6.014-2.457 8.218-3.29 8.84-11.86 8.848-1.663.002-3.326-.009-4.989 0-18.437.102-15.046-2.054-21.203 15.884-.108.314-.155.647-.25.966-1.14 3.852.207 5.682 4.31 5.616 5.82-.094 11.642-.024 17.462-.03 5.987-.005 11.974-.044 17.96.01 3.834.034 6.27-1.706 7.417-5.355q4.259-13.552 8.564-27.09c.598-1.883.691-3.593-1.187-4.863zm-29.113 30.745a37.287 37.287 0 0 1-4.454.056c-2.288-.048-5.158.333-5.579-2.716-.433-3.135 1.542-5.339 4.535-6.217a29.73 29.73 0 0 1 5.103-.65c2.914.616 7.057-1.135 7.075 3.564.015 3.886-3.028 5.6-6.68 5.963zm338.149 36.489c-3.77-2.476-13.718-.015-15.78 4.054-1.695 3.343-4.15 5.005-7.92 4.84-2.487-.11-4.983-.034-7.475-.015-18.368.14-15.702-2.45-21.77 16.429-.05.158-.125.308-.172.467-1.148 3.801.168 5.772 4.235 5.76 5.98-.017 11.961-.004 17.942-.003l17.443.003c3.526.005 6.173-1.458 7.322-4.86 2.491-7.381 4.852-14.806 7.228-22.226.527-1.647.663-3.323-1.052-4.45zM602 125.722c-1.331-.002-2.663.03-3.994 0-2.297-.05-5.163.394-5.453-2.845-.287-3.208 1.75-5.336 4.78-6.139a25.427 25.427 0 0 1 5.094-.306c2.435.704 6.828-1.527 6.783 3.303-.036 4.007-3.126 5.994-7.21 5.987zm-86.835-15.986c-5.984.109-11.972.028-17.959.026-5.82 0-11.641.073-17.46-.027-3.866-.066-6.32 1.702-7.51 5.267-1.262 3.783-2.496 7.58-3.581 11.416-1.245 4.402-.166 5.922 4.357 5.976 8.148.097 16.297.033 24.445.033 18.836.001 15.857 1.607 21.772-16.539.052-.157.127-.308.173-.467 1.068-3.742-.01-5.762-4.237-5.685zM496.5 125.722c-1.166.007-2.331.022-3.496.001-2.46-.043-5.636.467-5.802-3.022-.16-3.346 2.143-5.502 5.493-6.077a33.343 33.343 0 0 1 5.066-.042c1.924.585 6.313-1.761 6.09 3.344-.183 4.213-3.385 5.773-7.351 5.796zM287.312 109.78c-11.642-.054-23.285.048-34.926-.057-3.862-.035-6.364 1.543-7.556 5.156-1.302 3.946-2.528 7.918-3.768 11.885-1.23 3.934.405 5.67 4.35 5.659 5.82-.018 11.642-.005 17.463-.001 2.328.004 4.657-.002 6.985.005 19.202.056 15.944 1.354 21.866-16.448 1.552-4.667.417-6.177-4.414-6.2zm-15.125 15.456c-1.673.584-3.594.455-5.179.623-2.896-.604-7.119 1.22-7.16-3.465-.035-4.193 3.16-5.897 7.193-5.88 1.332.006 2.665-.032 3.996.006 2.265.065 5.182-.56 5.522 2.713.307 2.965-1.678 5.063-4.372 6.003zm296.727-15.462q-12.233-.075-24.468-.005c-18.075.108-15.34-2.284-21.22 15.825-1.718 5.289-.675 6.746 4.758 6.812 5.658.07 11.318.016 16.978.018q6.242.003 12.483.002c10.796-.002 10.827-.021 14.093-10.033.67-2.055 1.346-4.11 1.968-6.18 1.531-5.1.632-6.407-4.592-6.439zm-13.783 14.968c-2.13 1.343-4.512.896-7.115 1.005-2.214-.467-5.829 1.25-6.365-3.157-.396-3.259 2.767-5.904 7.03-6.066 1.498-.058 3-.04 4.498-.006 2.12.047 4.75-.448 5.215 2.494.399 2.518-1.148 4.395-3.263 5.73zm-38.146-76.238c-3.823.071-7.65.008-11.474.008q-12.224 0-24.447.008c-2.348.005-5.676-.065-5.778 2.55-.12 3.092 3.31 2.379 5.474 2.412 5.82.088 11.642-.028 17.461.064 1.699.027 3.66-.583 5.189 1.358-1.767 1.685-3.892 1.647-5.985 1.654-5.321.017-10.643.005-15.965.008-7.749.004-9.003.968-11.06 8.491-1.228 4.486-.33 5.818 4.357 5.872 8.148.093 16.298.068 24.447.018 18.715-.116 15.749 2.135 21.642-15.927q.155-.474.32-.944c1.394-3.95-.128-5.648-4.18-5.572zm-31.987 16.173c5-2.51 10.072-2.3 15.19-.336-5.003 2.333-10.082 1.887-15.19.336z" fill="#ff5a01"/></svg>